<?xml version="1.0" encoding="utf-8"?>
<!-- Generator: Adobe Illustrator 25.2.3, SVG Export Plug-In . SVG Version: 6.00 Build 0)  -->
<svg version="1.1" id="Layer_1" xmlns="http://www.w3.org/2000/svg" xmlns:xlink="http://www.w3.org/1999/xlink" x="0px" y="0px"
	 viewBox="0 0 511.8 511.8" style="enable-background:new 0 0 511.8 511.8;" xml:space="preserve">
<style type="text/css">
	.st0{fill-rule:evenodd;clip-rule:evenodd;fill:#89492C;}
</style>
<path class="st0" d="M346.5,373h-43l30,127.2c1,4.2,4.6,6.8,8.5,6.8c0.3,0,0.7,0,1,0c4.2-0.7,7.5-4.6,7.5-9.1V372.6
	C349.1,372.6,347.8,373,346.5,373L346.5,373z M167.8,274.5h174.5c10.4,0,18.9,8.8,18.9,19.9v43.4c0,11.1-8.5,20.2-18.9,20.2H167.8
	c-10.4,0-18.9-9.1-18.9-20.2v-43.4C148.9,283.3,157.3,274.5,167.8,274.5L167.8,274.5z M221.6,11h66.8c33.3,0,60.7,29,60.7,64.2v120
	c0,35.5-27.4,64.6-60.7,64.6h-16.6h-33.6h-16.6c-33.6,0-60.7-29-60.7-64.6v-120C160.9,40,188,11,221.6,11L221.6,11z M163.2,373
	c-1.3,0-2.6-0.3-3.9-0.3v125.2c0,4.6,3.3,8.5,7.8,9.1c0.3,0,0.6,0,1,0c3.9,0,7.5-2.6,8.5-6.8l30-127.2H163.2z"/>
</svg>
