<?xml version="1.0" encoding="utf-8"?>
<!-- Generator: Adobe Illustrator 25.2.3, SVG Export Plug-In . SVG Version: 6.00 Build 0)  -->
<svg version="1.1" id="Layer_1" xmlns="http://www.w3.org/2000/svg" xmlns:xlink="http://www.w3.org/1999/xlink" x="0px" y="0px"
	 viewBox="0 0 512 512" style="enable-background:new 0 0 512 512;" xml:space="preserve">
<style type="text/css">
	.st0{fill-rule:evenodd;clip-rule:evenodd;fill:#89492C;}
</style>
<path class="st0" d="M76.8,112.7h43.7V300h271V112.7h43.7c24.1,0,43.9,17.2,43.9,37.9v239.3h-42.9v30.5h-33.9v-30.5h-10.7
	c0-0.2-3.8,0-4.3,0H120.5h-8.3v30.5H78.3v-30.5H33V150.7C33,129.9,52.8,112.7,76.8,112.7L76.8,112.7z M196.8,91.5h120.2
	c31.7,0,57.5,22.4,57.5,49.6V154H139.3v-12.9C139.3,113.7,165.1,91.5,196.8,91.5L196.8,91.5z M374.6,175.2v63
	c0,27.4-25.8,49.9-57.5,49.9H196.8c-31.7,0-57.5-22.4-57.5-49.9v-63H374.6z"/>
</svg>
