<?xml version="1.0" encoding="utf-8"?>
<!-- Generator: Adobe Illustrator 25.2.3, SVG Export Plug-In . SVG Version: 6.00 Build 0)  -->
<svg version="1.1" id="Layer_1" xmlns="http://www.w3.org/2000/svg" xmlns:xlink="http://www.w3.org/1999/xlink" x="0px" y="0px"
	 viewBox="0 0 512 512" style="enable-background:new 0 0 512 512;" xml:space="preserve">
<style type="text/css">
	.st0{fill-rule:evenodd;clip-rule:evenodd;fill:#89492C;}
</style>
<path class="st0" d="M68.2,109.5h375.9c7.2,0,13.9,3,18.8,7.6l0,0c4.6,4.8,7.6,11.2,7.6,18.3l0,0c0,7.1-3,13.7-7.6,18.3
	c-4.2,3.9-9.3,6.6-15.1,7.6v232.3v8.9h-8.6H279.9h-8.6v-8.9V161.5H105.4v234.9H72.1V161.5h-3.9c-7.4,0-13.9-3-18.8-7.8l0,0
	c-4.9-4.6-7.9-11.2-7.9-18.3l0,0c0-7.1,3-13.5,7.9-18.3l0,0C54.3,112.5,61,109.5,68.2,109.5L68.2,109.5z M114.2,173.1h148.5v34.8
	H114.2V173.1z M359.5,330.4c6,0,11.1,5.3,11.1,11.7c0,6.4-5.1,11.7-11.1,11.7c-6,0-11.1-5.3-11.1-11.7
	C348.4,335.7,353.5,330.4,359.5,330.4L359.5,330.4z M359.5,253.5c6,0,11.1,5,11.1,11.4s-5.1,11.7-11.1,11.7c-6,0-11.1-5.3-11.1-11.7
	S353.5,253.5,359.5,253.5L359.5,253.5z M359.5,173.8c6,0,11.1,5.3,11.1,11.7c0,6.4-5.1,11.7-11.1,11.7c-6,0-11.1-5.3-11.1-11.7
	C348.4,179.1,353.5,173.8,359.5,173.8L359.5,173.8z M288.2,305h142.7v-56.1H288.2V305z M430.9,322.6H288.2v62.3h142.7V322.6z
	 M288.2,231.3h142.7v-66.8H288.2V231.3z"/>
</svg>
