<?xml version="1.0" encoding="utf-8"?>
<!-- Generator: Adobe Illustrator 25.2.3, SVG Export Plug-In . SVG Version: 6.00 Build 0)  -->
<svg version="1.1" id="Layer_1" xmlns="http://www.w3.org/2000/svg" xmlns:xlink="http://www.w3.org/1999/xlink" x="0px" y="0px"
	 viewBox="0 0 512 512" style="enable-background:new 0 0 512 512;" xml:space="preserve">
<style type="text/css">
	.st0{fill-rule:evenodd;clip-rule:evenodd;fill:#89492C;}
</style>
<path class="st0" d="M131.2,41h55v117.5h-5.4l-7.9-55.7c-0.7-5-5.4-8.6-10.4-7.9h-0.4c-5,0.7-8.9,6.1-7.9,11.4l7.2,52.1h-6.8
	l-5.7-39.6c-0.7-5.4-5.4-8.9-10-8.2h-0.7c-5,1.1-8.6,6.1-7.9,11.4l5,36.4h-6.8l-7.1-51.1c-1.1-7.5-7.5-12.9-14.6-11.8l-0.7,0.4
	c-7.5,1.1-12.5,8.6-11.4,16.4l6.4,46.1H87.2V87.8C87.2,62.1,107.2,41,131.2,41L131.2,41z M342.6,243.1c6.8,0,12.1,5.7,12.1,12.9
	c0,7.2-5.4,12.9-12.1,12.9c-6.8,0-12.1-5.7-12.1-12.9C330.5,248.9,335.8,243.1,342.6,243.1L342.6,243.1z M136.9,288.9
	c5.7,0,19.6-1.8,19.6-19.3c0-22.1-15-11.8-15-24.6c0-20.3,11.4-14.3,11.4-19.3c0-1.8-1.1-2.5-2.5-2.5h-28.2c-1.4,0-2.5,0.7-2.5,2.5
	c0,5,12.9-0.7,12.9,18.9c0,12.8-16.1,2.8-16.1,25c0,17.5,13.6,19.3,19.3,19.3H136.9z M424.8,87.8c0-25.7-19.6-46.8-43.9-46.8h-59.3
	v105.7v27.1v1.8v19.7V471h59.3c24.3,0,43.9-21.1,43.9-46.8C423.3,311.4,424.8,200.3,424.8,87.8L424.8,87.8z M186.2,175.7v113.9H87.2
	V175.7H186.2z M186.2,306.7V471h-55c-23.9,0-43.9-21.1-43.9-46.8V306.7H186.2z M202.3,41h103.2v430H202.3V41z M283.3,243.1
	c6.8,0,12.1,5.7,12.1,12.9c0,7.2-5.4,12.9-12.1,12.9s-12.1-5.7-12.1-12.9C271.2,248.9,276.5,243.1,283.3,243.1L283.3,243.1z"/>
</svg>
