<?xml version="1.0" encoding="utf-8"?>
<!-- Generator: Adobe Illustrator 25.2.3, SVG Export Plug-In . SVG Version: 6.00 Build 0)  -->
<svg version="1.1" id="Layer_1" xmlns="http://www.w3.org/2000/svg" xmlns:xlink="http://www.w3.org/1999/xlink" x="0px" y="0px"
	 viewBox="0 0 124 109.3" style="enable-background:new 0 0 124 109.3;" xml:space="preserve">
<style type="text/css">
	.st0{fill:#89492C;}
	.st1{fill-rule:evenodd;clip-rule:evenodd;fill:#89492C;}
</style>
<g transform="translate(0 -7.328)">
	<path class="st0" d="M49.8,29c3-1.3,4.4-4.8,3.1-7.9c0-0.1,0-0.1-0.1-0.1l-4.9-10.3c-1.4-2.9-4.8-4.2-7.8-2.9
		c-8,3.3-15.3,8-21.6,14C11.7,28.1,6.7,36,4,44.7C1.4,53.3,0,65,0,79.9v30.7c0,3.3,2.7,6,6,6h39.3c3.3,0,6-2.7,6-6V71.3
		c0-3.3-2.7-6-6-6H26.5c0.2-10.1,2.6-18.2,7-24.3C37.1,36.1,42.5,32.1,49.8,29z"/>
	<path class="st0" d="M120.4,29c3-1.3,4.4-4.8,3.1-7.9c0,0,0-0.1-0.1-0.1l-4.9-10.2c-1.4-2.9-4.8-4.2-7.8-2.9
		c-7.9,3.3-15.2,8-21.5,13.9c-6.8,6.3-11.8,14.2-14.6,23c-2.6,8.4-3.9,20.1-3.9,35.1v30.7c0,3.3,2.7,6,6,6H116c3.3,0,6-2.7,6-6V71.3
		c0-3.3-2.7-6-6-6H97.1c0.2-10.1,2.6-18.2,7-24.3C107.7,36.1,113.1,32.1,120.4,29z"/>
</g>
<path class="st1" d="M-429.1-112.7h24h7.9h248.3h5.2h26.7v364h-32v-83.7h-248.3v83.7h-32V-112.7z M-148.8,152.2v-69h-248.3v69
	H-148.8z M-148.8,67.5V3.8h-248.3v63.7H-148.8z M-148.8-11.7v-85.4h-248.3v85.4H-148.8z"/>
</svg>
