<?xml version="1.0" encoding="utf-8"?>
<!-- Generator: Adobe Illustrator 25.2.3, SVG Export Plug-In . SVG Version: 6.00 Build 0)  -->
<svg version="1.1" id="Layer_1" xmlns="http://www.w3.org/2000/svg" xmlns:xlink="http://www.w3.org/1999/xlink" x="0px" y="0px"
	 viewBox="0 0 512 512" style="enable-background:new 0 0 512 512;" xml:space="preserve">
<style type="text/css">
	.st0{fill-rule:evenodd;clip-rule:evenodd;fill:#89492C;}
</style>
<path class="st0" d="M35.4,257.2h71.9h24.1h3.9c3.3,0,6.2,2.9,6.2,6.5V276c0,3.6-2.9,6.5-6.2,6.5h-3.9v93h-24.1v-32.8H35.4v32.8
	H11.3V186.3c0-6.5,5.2-11.7,11.1-11.7h2.3c5.9,0,10.7,5.2,10.7,11.4V257.2z M96.2,187.3h68.3v179.2h21.8l1.3-151.5H327l2.3,151.5
	h20.2V187.3h76.4c9.8,1.6,7.5-11.7,7.5-15.9v-2.3c0-4.2-3.2-7.8-7.5-7.8H96.2c-3.9,0-7.1,3.6-7.1,7.8v2.3
	C89,175.5,86.8,187.9,96.2,187.3L96.2,187.3z M324.8,179.1V197l-134.6,1.6l-0.3-19.5H324.8z M476.6,257.2h-71.9h-24.1h-3.9
	c-3.2,0-6.2,2.9-6.2,6.5V276c0,3.6,2.9,6.5,6.2,6.5h3.9v93h24.1v-32.8h71.9v32.8h24.1V186.3c0-6.5-5.2-11.7-11.4-11.7h-1.9
	c-6.2,0-10.7,5.2-10.7,11.4V257.2z M404.8,329.7v-47.1h71.9v47.1H404.8z M107.2,329.7v-47.1H35.4v47.1H107.2z"/>
</svg>
