<?xml version="1.0" encoding="utf-8"?>
<!-- Generator: Adobe Illustrator 25.2.3, SVG Export Plug-In . SVG Version: 6.00 Build 0)  -->
<svg version="1.1" id="Layer_1" xmlns="http://www.w3.org/2000/svg" xmlns:xlink="http://www.w3.org/1999/xlink" x="0px" y="0px"
	 viewBox="0 0 512 512" style="enable-background:new 0 0 512 512;" xml:space="preserve">
<style type="text/css">
	.st0{fill-rule:evenodd;clip-rule:evenodd;fill:#89492C;}
</style>
<path class="st0" d="M452,464.4v-27.6v-27.9V75.7H59.9v333.2v27.9v27.6h26v-27.6c114.4,0,225.6,0,340,0v27.6L452,464.4L452,464.4z
	 M452,65.9l17.4-18.3h-427l17.4,18.3H452z M266.1,213.4h137.5h3.9v4.1V415v4.1h-3.9H266.1h-3.9V415V217.5v-4.1H266.1z M400,221.3
	H269.7v189.8H400V221.3z M108.2,213.4h137.7h3.6v4.1V415v4.1h-3.6H108.2h-3.6V415V217.5v-4.1H108.2z M242.3,221.3H112v189.8h130.3
	V221.3z M116.6,121.2h278.6c4.8,0,9.1,2,12,5.2c3.2,3.4,5,7.7,5,12.7v36.2c0,5-1.8,9.5-5,12.7l0,0l0,0c-3,3.2-7.3,5.2-12,5.2H116.6
	c-4.5,0-8.8-2-11.8-5.2c-3.2-3.2-5-7.7-5-12.7v-36.2c0-4.8,1.8-9.3,5-12.7l0,0C107.7,123.3,112,121.2,116.6,121.2L116.6,121.2z
	 M395.2,129.1H116.6c-2.5,0-5,1.1-6.6,2.9c-1.8,1.8-2.9,4.3-2.9,7v36.2c0,2.7,1.1,5.2,2.9,7c1.6,2,4.1,3.2,6.6,3.2h278.6
	c2.7,0,5.2-1.1,6.8-2.9v-0.2c1.8-1.8,2.9-4.3,2.9-7v-36.2c0-2.7-1.1-5.2-2.9-7C400.4,130.3,397.9,129.1,395.2,129.1L395.2,129.1z
	 M279.9,159.3c0,3-0.9,5.4-2.3,7.5c-1.6,2.5-3.9,3.9-6.6,3.9l0,0h-30.1l0,0c-2.7,0-5-1.4-6.6-3.9c-1.4-2-2.3-4.5-2.3-7.5
	c0-2.9,0.9-5.4,2.3-7.5c1.6-2.5,3.9-3.8,6.6-3.8l0,0H271l0,0c2.7,0,5,1.4,6.6,3.8C279,153.8,279.9,156.3,279.9,159.3L279.9,159.3z
	 M271.7,162.2c0.5-0.7,0.7-1.8,0.7-3c0-1.1-0.2-2.3-0.7-2.9c-0.2-0.5-0.4-0.5-0.7-0.5l0,0h-30.1l0,0c-0.2,0-0.5,0-0.7,0.5
	c-0.5,0.7-0.7,1.8-0.7,2.9c0,1.1,0.2,2.3,0.7,3c0.2,0.5,0.5,0.5,0.7,0.5l0,0H271l0,0C271.3,162.7,271.5,162.7,271.7,162.2
	L271.7,162.2z M227.1,285.9c2.7,0,5.2,0.7,7.3,2.3c2.3,1.6,3.6,4.1,3.6,7v31.9c0,2.7-1.4,5.2-3.6,7c-2,1.4-4.5,2.3-7.3,2.3
	c-2.7,0-5.2-0.9-7-2.3c-2.3-1.8-3.6-4.3-3.6-7v-31.9c0-2.9,1.4-5.4,3.6-7C221.9,286.6,224.4,285.9,227.1,285.9L227.1,285.9z
	 M230.1,294.5c-0.7-0.5-1.8-0.9-3-0.9c-1.1,0-2,0.4-2.7,0.9c-0.2,0.2-0.5,0.5-0.5,0.7v31.9c0,0.2,0.2,0.5,0.5,0.7
	c0.7,0.5,1.6,0.7,2.7,0.7c1.1,0,2.3-0.2,3-0.7c0.2-0.2,0.4-0.5,0.4-0.7v-31.9C230.5,295,230.3,294.7,230.1,294.5L230.1,294.5z
	 M284.9,285.9c2.7,0,5.2,0.7,7,2.3c2.3,1.6,3.6,4.1,3.6,7v31.9c0,2.7-1.4,5.2-3.6,7c-1.8,1.4-4.3,2.3-7,2.3s-5.4-0.9-7.2-2.3
	c-2.3-1.8-3.6-4.3-3.6-7v-31.9c0-2.9,1.4-5.4,3.6-7C279.4,286.6,282.2,285.9,284.9,285.9L284.9,285.9z M287.6,294.5
	c-0.7-0.5-1.6-0.9-2.7-0.9c-1.4,0-2.3,0.4-2.9,0.9c-0.2,0.2-0.5,0.5-0.5,0.7v31.9c0,0.2,0.2,0.5,0.5,0.7c0.7,0.5,1.6,0.7,2.9,0.7
	c1.1,0,2-0.2,2.7-0.7c0.2-0.2,0.5-0.5,0.5-0.7v-31.9C288.1,295,287.8,294.7,287.6,294.5L287.6,294.5z"/>
</svg>
