<?xml version="1.0" encoding="utf-8"?>
<!-- Generator: Adobe Illustrator 25.2.3, SVG Export Plug-In . SVG Version: 6.00 Build 0)  -->
<svg version="1.1" id="Layer_1" xmlns="http://www.w3.org/2000/svg" xmlns:xlink="http://www.w3.org/1999/xlink" x="0px" y="0px"
	 viewBox="0 0 504 504" style="enable-background:new 0 0 504 504;" xml:space="preserve">
<style type="text/css">
	.st0{fill:#FFFFFD;}
	.st1{fill-rule:evenodd;clip-rule:evenodd;fill:#89492C;}
</style>
<g>
	<path class="st0" d="M174.4,292.8c-5.6,0-10.4-0.8-14.4-3.2c-4-2.4-8-4.8-11.2-8.8s-5.6-8-7.2-12.8c-1.6-4.8-2.4-10.4-2.4-16l0,0
		c0-5.6,0.8-11.2,2.4-16c1.6-4.8,4-9.6,7.2-12.8c3.2-4,6.4-6.4,11.2-8.8c4-2.4,8.8-3.2,14.4-3.2c4.8,0,9.6,0.8,14.4,3.2
		c4,2.4,8,4.8,11.2,8.8s5.6,8,7.2,12.8c1.6,4.8,2.4,10.4,2.4,16l0,0c0,5.6-0.8,11.2-2.4,16c-1.6,4.8-4,9.6-7.2,12.8
		c-3.2,4-6.4,6.4-11.2,8.8C184.8,292,180,292.8,174.4,292.8z M175.2,276.8c2.4,0,4.8-0.8,7.2-1.6c2.4-1.6,4-3.2,5.6-5.6
		s2.4-4.8,3.2-8s0.8-6.4,0.8-10.4l0,0c0-4-0.8-7.2-1.6-9.6c-0.8-3.2-2.4-5.6-3.2-8c-1.6-2.4-3.2-4-5.6-5.6c-2.4-1.6-4.8-1.6-7.2-1.6
		s-4.8,0.8-7.2,1.6c-2.4,1.6-4,3.2-5.6,4.8c-1.6,2.4-2.4,4.8-3.2,8s-1.6,6.4-1.6,10.4l0,0c0,4,0,7.2,1.6,10.4c0.8,3.2,1.6,5.6,3.2,8
		c1.6,2.4,3.2,4,5.6,5.6S172,276.8,175.2,276.8z"/>
	<path class="st0" d="M221.6,277.6L248,256c2.4-2.4,4.8-4,6.4-5.6s3.2-3.2,4-4.8s1.6-3.2,2.4-4c0.8-1.6,0.8-3.2,0.8-4.8
		c0-3.2-0.8-5.6-3.2-8c-1.6-1.6-4.8-2.4-8-2.4s-5.6,0.8-8,2.4c-2.4,1.6-4.8,4-8,8l-12-8.8c1.6-2.4,4-4.8,5.6-7.2s4-4,6.4-4.8
		c2.4-1.6,4.8-2.4,8-3.2c2.4-0.8,5.6-0.8,9.6-0.8s8,0.8,11.2,1.6s6.4,3.2,8.8,4.8c2.4,2.4,4,4.8,5.6,8s1.6,6.4,1.6,10.4l0,0
		c0,3.2-0.8,6.4-1.6,8.8c-0.8,2.4-2.4,4.8-4,7.2s-4,4.8-6.4,7.2c-2.4,2.4-5.6,4.8-8.8,7.2l-12.8,9.6H280V292h-58.4V277.6
		L221.6,277.6z"/>
</g>
<path class="st1" d="M173.4,217.6h137.9h46.5h7.1c6.6,0,12,5.7,12,12.6v24c0,6.9-5.4,12.6-12,12.6h-7.1v178.4h-46.5v-63.4H173.4
	v63.4h-46.2V81.7c0-12.6,9.7-22.8,21.4-22.8h4.3c11.4,0,20.5,9.7,20.5,21.7V217.6z M311.2,357.2v-90.5H173.4v90.5H311.2z"/>
</svg>
